<?xml version="1.0" encoding="UTF-8"?>
<svg id="_레이어_2" data-name="레이어 2" xmlns="http://www.w3.org/2000/svg" xmlns:xlink="http://www.w3.org/1999/xlink" viewBox="0 0 27.17 28">
  <defs>
    <style>
      .cls-1 {
        fill: url(#_무제_그라디언트_7-3);
      }

      .cls-2 {
        fill: url(#_무제_그라디언트_7-4);
      }

      .cls-3 {
        fill: url(#_무제_그라디언트_7-5);
      }

      .cls-4 {
        fill: url(#_무제_그라디언트_7-6);
      }

      .cls-5 {
        fill: url(#_무제_그라디언트_7-2);
      }

      .cls-6 {
        fill: url(#_무제_그라디언트_7);
      }
    </style>
    <linearGradient id="_무제_그라디언트_7" data-name="무제 그라디언트 7" x1="-843.86" y1="546.09" x2="-841.62" y2="544.09" gradientTransform="translate(8779.6667 5068.0906) scale(10.3977 -9.2773)" gradientUnits="userSpaceOnUse">
      <stop offset="0" stop-color="#4f21ff"/>
      <stop offset="1" stop-color="#d75bfe"/>
    </linearGradient>
    <linearGradient id="_무제_그라디언트_7-2" data-name="무제 그라디언트 7" x1="-843.45" y1="537.83" x2="-840.94" y2="535.88" gradientTransform="translate(8777.0311 4343.8662) scale(10.3977 -8.0762)" xlink:href="#_무제_그라디언트_7"/>
    <linearGradient id="_무제_그라디언트_7-3" data-name="무제 그라디언트 7" x1="-782.77" y1="555.93" x2="-781.28" y2="553.14" gradientTransform="translate(4891.5498 6492.0516) scale(6.2386 -11.6794)" xlink:href="#_무제_그라디언트_7"/>
    <linearGradient id="_무제_그라디언트_7-4" data-name="무제 그라디언트 7" x1="-842.85" y1="545.15" x2="-840.61" y2="543.15" gradientTransform="translate(8762.8955 5065.6894) scale(10.3977 -9.2773)" xlink:href="#_무제_그라디언트_7"/>
    <linearGradient id="_무제_그라디언트_7-5" data-name="무제 그라디언트 7" x1="-843.52" y1="537.88" x2="-841.01" y2="535.94" gradientTransform="translate(8765.5302 4356.5877) scale(10.3977 -8.0762)" xlink:href="#_무제_그라디언트_7"/>
    <linearGradient id="_무제_그라디언트_7-6" data-name="무제 그라디언트 7" x1="-783.65" y1="557.48" x2="-782.16" y2="554.69" gradientTransform="translate(4898.8935 6507.3467) scale(6.2386 -11.6777)" xlink:href="#_무제_그라디언트_7"/>
  </defs>
  <g id="_레이어_1-2" data-name="레이어 1">
    <path class="cls-6" d="M26.63,16.09l-3.77-2.18c.09-.16.14-.34.14-.54v-1.17c0-.38-.2-.74-.54-.93l-1.01-.58c-.33-.19-.74-.19-1.07,0l-3.09,1.78c-.33.19-.54.55-.54.93v1.17c0,.38.2.74.54.93l7.25,4.18c.33.19.74.19,1.07,0l1.01-.58c.33-.19.54-.55.54-.93v-1.17c0-.38-.2-.74-.54-.93Z"/>
    <path class="cls-6" d="M26.63,16.09l-3.77-2.18c.09-.16.14-.34.14-.54v-1.17c0-.38-.2-.74-.54-.93l-1.01-.58c-.33-.19-.74-.19-1.07,0l-3.09,1.78c-.33.19-.54.55-.54.93v1.17c0,.38.2.74.54.93l7.25,4.18c.33.19.74.19,1.07,0l1.01-.58c.33-.19.54-.55.54-.93v-1.17c0-.38-.2-.74-.54-.93Z"/>
    <path class="cls-5" d="M21.92,3.75l-3.77,2.18c-.09-.16-.23-.3-.39-.39l-1.01-.58c-.33-.19-.74-.19-1.07,0l-1.01.58c-.33.19-.54.55-.54.93v3.57c0,.38.2.74.54.93l1.01.58c.33.19.74.19,1.07,0l7.25-4.18c.33-.19.54-.55.54-.93v-1.17c0-.38-.2-.74-.54-.93l-1.01-.58c-.33-.19-.74-.19-1.07,0h0Z"/>
    <path class="cls-1" d="M8.87,1.65v4.35c-.19,0-.37.05-.54.14l-1.01.58c-.33.19-.54.55-.54.93v1.17c0,.38.2.74.54.93l3.09,1.78c.33.19.74.19,1.07,0l1.01-.58c.33-.19.54-.55.54-.93V1.65c0-.38-.2-.74-.54-.93l-1.01-.58c-.33-.19-.74-.19-1.07,0l-1.01.58c-.33.19-.54.55-.54.93Z"/>
    <path class="cls-2" d="M.54,11.91l3.77,2.18c-.09.16-.14.34-.14.54v1.17c0,.38.2.74.54.93l1.01.58c.33.19.74.19,1.07,0l3.09-1.78c.33-.19.54-.55.54-.93v-1.17c0-.38-.2-.74-.54-.93l-7.25-4.18c-.33-.19-.74-.19-1.07,0l-1.01.58c-.33.19-.54.55-.54.93v1.17c0,.38.2.74.54.93Z"/>
    <path class="cls-3" d="M5.25,24.25l3.77-2.18c.09.16.23.3.39.39l1.01.58c.33.19.74.19,1.07,0l1.01-.58c.33-.19.54-.55.54-.93v-3.57c0-.38-.2-.74-.54-.93l-1.01-.58c-.33-.19-.74-.19-1.07,0l-7.25,4.18c-.33.19-.54.55-.54.93v1.17c0,.38.2.74.54.93l1.01.58c.33.19.74.19,1.07,0h0Z"/>
    <path class="cls-4" d="M18.3,26.35v-4.35c.19,0,.37-.05.54-.14l1.01-.58c.33-.19.54-.55.54-.93v-1.17c0-.38-.2-.74-.54-.93l-3.09-1.78c-.33-.19-.74-.19-1.07,0l-1.01.58c-.33.19-.54.55-.54.93v8.37c0,.38.2.74.54.93l1.01.58c.33.19.74.19,1.07,0l1.01-.58c.33-.19.54-.55.54-.93h0Z"/>
  </g>
</svg>
